<svg fill="#FFFFFF" xmlns="http://www.w3.org/2000/svg"  viewBox="0 0 100 100" width="100px" height="100px"><path d="M 50 23.996094 C 36.883315 23.996094 24.999346 26.699881 16.310547 31.136719 C 7.6217472 35.573556 2 41.839497 2 48.996094 C 2 56.152691 7.6217472 62.420584 16.310547 66.857422 C 24.999346 71.29426 36.883315 73.996094 50 73.996094 C 63.116685 73.996094 75.000654 71.29426 83.689453 66.857422 C 92.378253 62.420584 98 56.152691 98 48.996094 C 98 41.839497 92.378253 35.573556 83.689453 31.136719 C 75.000654 26.699881 63.116685 23.996094 50 23.996094 z M 50 25.996094 C 62.840716 25.996094 74.457457 28.668515 82.779297 32.917969 C 91.101137 37.167423 96 42.897857 96 48.996094 C 96 55.094331 91.101137 60.826718 82.779297 65.076172 C 74.457457 69.325626 62.840716 71.996094 50 71.996094 C 37.159284 71.996094 25.542543 69.325626 17.220703 65.076172 C 8.8988632 60.826718 4 55.094331 4 48.996094 C 4 42.897857 8.8988632 37.167423 17.220703 32.917969 C 25.542543 28.668515 37.159284 25.996094 50 25.996094 z M 50 27.996094 C 38.217611 27.996094 27.52933 30.302006 19.744141 34.056641 C 11.958952 37.811275 7 43.061031 7 48.994141 C 7 54.92728 11.960412 60.179907 19.746094 63.935547 C 27.531776 67.691187 38.219535 69.996094 50.001953 69.996094 C 61.784371 69.996094 72.470915 67.691197 80.255859 63.935547 C 88.040803 60.179897 93.00105 54.927275 93 48.994141 C 93 45.34574 91.102262 41.936622 87.853516 39.001953 C 84.604769 36.067284 79.994816 33.579161 74.445312 31.708984 A 0.50005 0.50005 0 1 0 74.126953 32.65625 C 79.580451 34.494073 84.07609 36.93706 87.183594 39.744141 C 90.291097 42.551222 92 45.691541 92 48.994141 C 92.00095 54.365007 87.428322 59.365806 79.822266 63.035156 C 72.21621 66.704506 61.653535 68.996094 50.001953 68.996094 C 38.350371 68.996094 27.786505 66.704516 20.179688 63.035156 C 12.572869 59.365796 8 54.365001 8 48.994141 C 8 43.623251 12.573375 38.625397 20.179688 34.957031 C 27.785999 31.288666 38.348389 28.996094 50 28.996094 C 51.35743 28.996094 52.700063 29.027241 54.025391 29.087891 A 0.50005 0.50005 0 1 0 54.070312 28.089844 C 52.729642 28.02849 51.37257 27.996094 50 27.996094 z M 56.939453 28.28125 A 0.50024408 0.50024408 0 0 0 56.958984 29.28125 C 57.626855 29.33591 58.290551 29.39821 58.947266 29.46875 A 0.50005 0.50005 0 1 0 59.052734 28.474609 C 58.387449 28.403149 57.717145 28.338541 57.041016 28.283203 A 0.50005 0.50005 0 0 0 56.990234 28.28125 A 0.50024408 0.50024408 0 0 0 56.939453 28.28125 z M 61.972656 28.849609 A 0.50005 0.50005 0 0 0 61.927734 29.845703 C 65.080185 30.304711 68.074785 30.940841 70.863281 31.730469 A 0.50048162 0.50048162 0 1 0 71.136719 30.767578 C 68.303215 29.965206 65.265815 29.320461 62.072266 28.855469 A 0.50005 0.50005 0 0 0 61.972656 28.849609 z M 20.130859 36.990234 C 19.765352 36.990234 19.501953 37.228318 19.501953 37.615234 L 19.501953 38.814453 C 19.501953 39.196161 19.768742 39.439453 20.130859 39.439453 L 20.732422 39.439453 L 20.732422 60.982422 C 20.732422 61.529681 21.203345 61.990234 21.746094 61.990234 L 27.421875 61.990234 C 27.971071 61.990234 28.417969 61.516756 28.417969 60.984375 L 28.417969 52.5 L 34.830078 61.214844 C 34.830078 61.214844 34.832031 61.214844 34.832031 61.214844 C 35.136058 61.670113 35.581099 61.990234 36.142578 61.990234 L 42.792969 61.990234 C 43.184011 61.990234 43.471656 61.789251 43.644531 61.464844 A 0.50005 0.50005 0 0 0 43.644531 61.462891 C 43.821228 61.129807 43.755849 60.701286 43.548828 60.412109 C 43.509518 60.355339 35.204526 48.838153 35.126953 48.730469 C 35.129553 48.733469 35.125449 48.748528 35.162109 48.673828 L 35.160156 48.681641 L 42.115234 38.501953 A 0.50005 0.50005 0 0 0 42.126953 38.484375 C 42.321417 38.174106 42.311365 37.790556 42.136719 37.484375 C 41.968526 37.189567 41.648499 36.990234 41.298828 36.990234 L 34.984375 36.990234 C 34.422898 36.990234 33.978149 37.308398 33.669922 37.757812 L 33.667969 37.757812 L 28.417969 45.003906 L 28.417969 37.996094 C 28.417969 37.442314 27.955848 36.990234 27.404297 36.990234 L 20.130859 36.990234 z M 62.320312 36.990234 C 61.94762 36.990234 61.691406 37.217901 61.691406 37.615234 L 61.691406 38.814453 C 61.691406 39.014808 61.777806 39.158037 61.882812 39.259766 C 61.987823 39.361495 62.130747 39.439453 62.320312 39.439453 L 63.054688 39.439453 C 63.051988 39.447453 63.054363 39.443355 63.050781 39.453125 A 0.50005 0.50005 0 0 0 63.046875 39.462891 L 55.798828 60.712891 A 0.50005 0.50005 0 0 0 55.791016 60.740234 C 55.705726 61.044855 55.770386 61.369083 55.962891 61.619141 A 0.50005 0.50005 0 0 0 55.964844 61.623047 C 56.147301 61.856756 56.440813 61.990234 56.728516 61.990234 L 62.376953 61.990234 C 62.911247 61.990234 63.327464 61.655544 63.517578 61.177734 A 0.50005 0.50005 0 0 0 63.529297 61.146484 L 68.105469 46.994141 L 72.732422 61.148438 A 0.50005 0.50005 0 0 0 72.742188 61.177734 C 72.931336 61.654717 73.359212 61.990234 73.886719 61.990234 L 79.53125 61.990234 C 79.890866 61.990234 80.176197 61.782529 80.300781 61.619141 A 0.50005 0.50005 0 0 0 80.302734 61.613281 C 80.521686 61.320006 80.559569 61.015405 80.464844 60.720703 A 0.50005 0.50005 0 0 0 80.460938 60.710938 L 72.603516 37.666016 A 0.50005 0.50005 0 0 0 72.59375 37.636719 C 72.479319 37.359479 72.235105 37.163077 72.015625 37.080078 C 71.796145 36.997078 71.5992 36.990234 71.447266 36.990234 L 62.320312 36.990234 z M 52.730469 36.992188 L 45.048828 36.998047 C 44.855773 36.998047 44.578631 37.203404 44.517578 37.361328 C 44.456528 37.519253 44.474609 37.596047 44.474609 37.623047 L 44.474609 38.8125 C 44.474026 38.84281 44.454868 38.925404 44.517578 39.085938 C 44.580288 39.24647 44.857319 39.445312 45.048828 39.445312 L 45.755859 39.445312 L 45.755859 60.990234 C 45.755859 61.5443 46.234202 61.996094 46.777344 61.996094 L 52.730469 61.990234 C 53.274056 61.990234 53.753906 61.537275 53.753906 60.984375 L 53.753906 38.001953 C 53.753906 37.44098 53.284672 36.992188 52.730469 36.992188 z M 20.501953 37.990234 L 27.404297 37.990234 C 27.418747 37.990234 27.417969 37.993794 27.417969 37.996094 L 27.417969 45.658203 C 27.417969 46.069779 27.820956 46.412109 28.191406 46.412109 L 28.197266 46.412109 C 28.354266 46.412109 28.728522 46.302151 28.980469 45.931641 L 28.972656 45.945312 L 34.486328 38.333984 A 0.50005 0.50005 0 0 0 34.494141 38.324219 C 34.615877 38.146426 34.948474 37.990234 34.984375 37.990234 L 41.255859 37.990234 L 34.306641 48.15625 A 0.50005 0.50005 0 0 0 34.263672 48.232422 C 34.263321 48.233137 34.264027 48.235628 34.263672 48.236328 A 0.50005 0.50005 0 0 0 34.259766 48.242188 C 34.207936 48.345985 34.111328 48.496275 34.111328 48.755859 C 34.111328 48.857586 34.132379 48.918689 34.136719 48.931641 C 34.161769 49.059231 34.202702 49.1288 34.232422 49.181641 A 0.50005 0.50005 0 0 0 34.234375 49.1875 C 34.236475 49.1911 34.267473 49.2494 34.314453 49.314453 C 34.412993 49.45124 42.706567 60.950474 42.726562 60.980469 A 0.50005 0.50005 0 0 0 42.734375 60.990234 L 36.142578 60.990234 C 36.106678 60.990234 35.782062 60.840085 35.662109 60.660156 A 0.50005 0.50005 0 0 0 35.648438 60.640625 L 28.970703 51.564453 A 0.50005 0.50005 0 0 0 28.960938 51.550781 C 28.963438 51.554581 28.954278 51.541869 28.955078 51.542969 C 28.954488 51.542121 28.951772 51.539963 28.951172 51.539062 C 28.950954 51.538525 28.944873 51.532361 28.939453 51.525391 A 0.50005 0.50005 0 0 0 28.921875 51.507812 C 28.882805 51.451253 28.835025 51.37437 28.726562 51.287109 C 28.600306 51.185537 28.396564 51.099609 28.189453 51.099609 C 27.991599 51.099609 27.765789 51.184119 27.619141 51.347656 C 27.472493 51.511196 27.417969 51.719405 27.417969 51.910156 L 27.417969 60.984375 C 27.417969 61.011995 27.438685 60.990234 27.421875 60.990234 L 21.746094 60.990234 C 21.710844 60.990234 21.732422 61.011152 21.732422 60.982422 L 21.732422 39.408203 C 21.732422 39.01164 21.449148 38.734634 21.103516 38.583984 A 0.50005 0.50005 0 0 0 20.748047 38.4375 A 0.50005 0.50005 0 0 0 20.697266 38.439453 L 20.501953 38.439453 L 20.501953 37.990234 z M 62.691406 37.990234 L 71.447266 37.990234 C 71.549331 37.990234 71.634339 38.005125 71.662109 38.015625 C 71.689879 38.026125 71.659369 37.996768 71.667969 38.017578 L 79.5 60.990234 L 73.886719 60.990234 C 73.856229 60.990234 73.712727 60.911614 73.671875 60.808594 L 68.8125 45.943359 A 0.50005 0.50005 0 0 0 68.804688 45.919922 A 0.50005 0.50005 0 0 0 68.800781 45.908203 C 68.798681 45.903403 68.796222 45.901438 68.794922 45.898438 C 68.794922 45.898438 68.794922 45.896484 68.794922 45.896484 A 0.50005 0.50005 0 0 0 68.792969 45.892578 C 68.789869 45.884678 68.789256 45.878631 68.785156 45.869141 C 68.767206 45.827301 68.739993 45.770821 68.695312 45.707031 C 68.605953 45.579456 68.391081 45.390625 68.105469 45.390625 C 67.827123 45.390625 67.605338 45.572531 67.511719 45.705078 C 67.464909 45.771348 67.437089 45.829813 67.417969 45.876953 C 67.408369 45.900523 67.400491 45.920343 67.394531 45.939453 C 67.392131 45.947153 67.390972 45.956394 67.388672 45.964844 C 67.388131 45.966844 67.387319 45.968503 67.386719 45.970703 L 62.587891 60.808594 C 62.552001 60.898784 62.388659 60.990234 62.376953 60.990234 L 56.761719 60.990234 L 63.994141 39.787109 L 63.988281 39.796875 C 64.040331 39.655416 64.076172 39.508516 64.076172 39.353516 C 64.076172 39.099139 63.960477 38.8379 63.769531 38.673828 C 63.578585 38.509756 63.335603 38.439453 63.095703 38.439453 L 62.691406 38.439453 L 62.691406 37.990234 z M 52.730469 37.992188 C 52.752269 37.992188 52.753906 38.006893 52.753906 38.001953 L 52.753906 60.984375 C 52.753906 61.003475 52.776889 60.990234 52.730469 60.990234 L 46.777344 60.996094 C 46.736484 60.996094 46.755859 61.008214 46.755859 60.990234 L 46.755859 39.417969 C 46.755859 39.191903 46.692129 38.953676 46.529297 38.759766 C 46.366469 38.565855 46.095515 38.445312 45.832031 38.445312 L 45.474609 38.445312 L 45.474609 37.998047 L 52.730469 37.992188 z M 20.255859 38.931641 A 0.50005 0.50005 0 0 0 20.255859 38.945312 L 20.248047 38.939453 L 20.25 38.9375 L 20.255859 38.931641 z M 68.337891 46.099609 C 68.337891 46.099609 68.139506 46.27274 68.041016 46.359375 C 67.999956 46.344305 67.972316 46.334173 67.947266 46.314453 C 68.022586 46.272473 68.337891 46.099609 68.337891 46.099609 z M 79.507812 61.009766 L 79.511719 61.025391 C 79.506763 61.009976 79.507987 61.016534 79.505859 61.011719 C 79.505859 61.011719 79.507812 61.009766 79.507812 61.009766 z"/></svg>