<svg fill="#FFFFFF" xmlns="http://www.w3.org/2000/svg"  viewBox="0 0 50 50" width="100px" height="100px"><path d="M 25.011719 2 C 19.621094 2 14.378906 2.75 10.8125 3.882813 C 6.019531 5.382813 5.019531 6.039063 5.019531 9.320313 C 5.019531 26.558594 11.808594 36.152344 17.820313 41.902344 C 20.980469 44.921875 23.898438 47.121094 25.011719 47.121094 C 26.121094 47.121094 29.039063 44.921875 32.199219 41.902344 C 38.210938 36.152344 45 26.558594 45 9.320313 C 45 6.039063 44 5.382813 39.210938 3.882813 C 35.640625 2.75 30.410156 2 25.011719 2 Z M 23.421875 7.320313 C 24.148438 7.320313 24.738281 8.050781 24.738281 9.507813 C 24.738281 10.96875 24.148438 11.6875 23.421875 11.6875 C 22.691406 11.6875 22.097656 11.230469 22.097656 9.507813 C 22.097656 8.585938 22.328125 7.960938 22.683594 7.625 C 22.820313 7.488281 22.980469 7.398438 23.15625 7.351563 C 23.242188 7.332031 23.328125 7.320313 23.421875 7.320313 Z M 25.199219 7.367188 C 25.199219 7.367188 26.390625 7.417969 26.671875 7.429688 C 26.949219 7.441406 27.679688 7.710938 27.679688 8.609375 C 27.679688 9.507813 27.0625 9.730469 27.0625 9.730469 L 27.730469 11.6875 L 26.902344 11.660156 L 26.25 9.859375 L 25.960938 9.859375 L 25.949219 11.621094 L 25.199219 11.621094 Z M 29.21875 7.4375 C 30.429688 7.4375 30.519531 8.75 30.519531 8.75 L 29.75 8.882813 C 29.75 8.882813 29.628906 8.210938 29.289063 8.210938 C 28.949219 8.210938 28.71875 8.820313 28.71875 9.570313 C 28.71875 10.332031 28.890625 11.089844 29.347656 11.089844 C 29.738281 11.089844 29.75 10.628906 29.75 10.539063 C 29.75 10.4375 29.738281 10.289063 29.738281 10.289063 L 29.3125 10.261719 L 29.3125 9.519531 L 30.511719 9.617188 L 30.511719 10.609375 C 30.511719 10.820313 30.511719 11.839844 29.390625 11.839844 C 28.269531 11.839844 27.96875 10.699219 27.96875 9.492188 C 27.96875 8.269531 28.371094 7.4375 29.21875 7.4375 Z M 20.628906 7.550781 C 20.726563 7.546875 20.804688 7.574219 20.890625 7.59375 C 20.953125 7.605469 21.019531 7.605469 21.074219 7.625 C 21.144531 7.65625 21.199219 7.707031 21.261719 7.75 C 21.304688 7.785156 21.355469 7.808594 21.394531 7.847656 C 21.449219 7.90625 21.488281 7.980469 21.527344 8.054688 C 21.550781 8.097656 21.585938 8.128906 21.605469 8.175781 C 21.652344 8.300781 21.679688 8.433594 21.679688 8.578125 C 21.679688 9.15625 21.480469 9.339844 21.28125 9.488281 C 21.738281 9.699219 21.75 10.320313 21.75 10.371094 C 21.75 11.589844 20.851563 11.769531 20.710938 11.78125 C 20.5625 11.800781 19.328125 11.898438 19.328125 11.898438 L 19.328125 7.660156 C 19.328125 7.660156 20.101563 7.582031 20.628906 7.550781 Z M 31.078125 7.699219 L 31.847656 7.820313 L 31.847656 9.429688 L 32.8125 9.570313 L 32.8125 7.9375 L 33.589844 8.101563 L 33.589844 12.320313 L 32.789063 12.179688 L 32.8125 10.320313 L 31.839844 10.1875 L 31.820313 12.0625 L 31.078125 11.949219 Z M 18.71875 7.710938 L 18.71875 11.980469 L 17.949219 12.070313 L 18.011719 9.992188 L 17.21875 12.511719 L 16.4375 9.9375 L 16.488281 12.300781 L 15.78125 12.429688 C 15.777344 12.429688 15.777344 12.167969 15.773438 11.769531 C 15.773438 11.472656 15.769531 11.101563 15.769531 10.707031 C 15.769531 10.449219 15.769531 10.179688 15.769531 9.921875 C 15.769531 9.011719 15.769531 8.199219 15.769531 8.199219 L 16.53125 8.03125 L 17.25 10.371094 L 17.9375 7.8125 Z M 23.421875 8.089844 C 23.109375 8.089844 22.859375 8.558594 22.859375 9.53125 C 22.859375 9.957031 22.894531 10.265625 22.953125 10.484375 C 23.054688 10.851563 23.226563 10.96875 23.421875 10.96875 C 23.730469 10.96875 23.980469 10.488281 23.980469 9.53125 C 23.980469 8.570313 23.730469 8.089844 23.421875 8.089844 Z M 25.949219 8.140625 L 25.949219 9.148438 L 26.511719 9.148438 C 26.75 9.148438 26.921875 8.917969 26.921875 8.589844 C 26.921875 8.25 26.601563 8.140625 26.402344 8.140625 Z M 34.199219 8.21875 L 34.988281 8.367188 L 34.988281 12.589844 L 34.199219 12.4375 Z M 20.503906 8.289063 C 20.484375 8.289063 20.46875 8.285156 20.460938 8.289063 C 20.402344 8.289063 20.09375 8.300781 20.09375 8.300781 L 20.09375 9.21875 C 20.09375 9.21875 20.320313 9.21875 20.5 9.199219 C 20.671875 9.1875 20.910156 9 20.910156 8.640625 C 20.910156 8.554688 20.886719 8.492188 20.851563 8.445313 C 20.839844 8.425781 20.824219 8.417969 20.8125 8.40625 C 20.78125 8.378906 20.753906 8.351563 20.71875 8.335938 C 20.703125 8.328125 20.6875 8.324219 20.667969 8.316406 C 20.632813 8.304688 20.605469 8.296875 20.574219 8.296875 C 20.558594 8.292969 20.546875 8.289063 20.53125 8.289063 C 20.523438 8.289063 20.511719 8.289063 20.503906 8.289063 Z M 14.371094 8.492188 L 15.449219 12.488281 L 14.652344 12.6875 L 14.402344 11.628906 L 13.652344 11.839844 L 13.429688 12.960938 L 12.609375 13.199219 L 13.652344 8.671875 Z M 35.628906 8.5 L 36.347656 8.671875 L 37.347656 11.21875 L 37.347656 8.949219 L 38.121094 9.210938 L 38.121094 13.488281 L 37.480469 13.238281 L 36.371094 10.320313 L 36.371094 12.9375 L 35.628906 12.71875 Z M 11.21875 9.398438 L 11.21875 12.96875 L 12.511719 12.488281 L 12.511719 13.25 L 10.449219 13.988281 L 10.449219 9.699219 Z M 38.75 9.4375 L 39.519531 9.710938 L 39.519531 14 L 38.75 13.6875 Z M 14.019531 9.757813 L 13.78125 11.109375 L 14.28125 11 Z M 20.550781 9.949219 C 20.472656 9.949219 20.097656 9.980469 20.097656 9.980469 L 20.097656 11.0625 C 20.097656 11.0625 20.398438 11.058594 20.578125 11.03125 C 20.761719 10.988281 20.980469 10.800781 20.980469 10.402344 C 20.980469 10.011719 20.621094 9.949219 20.550781 9.949219 Z M 26.761719 13.003906 C 26.875 13 26.964844 13.011719 27.035156 13.03125 L 27.039063 13.03125 C 27.117188 13.058594 27.183594 13.097656 27.238281 13.152344 C 27.300781 13.203125 27.355469 13.265625 27.421875 13.339844 C 27.503906 13.328125 27.59375 13.324219 27.683594 13.324219 C 27.824219 13.328125 27.96875 13.34375 28.117188 13.375 C 28.152344 13.382813 28.1875 13.390625 28.222656 13.398438 C 28.371094 13.433594 28.523438 13.476563 28.671875 13.527344 C 29.039063 13.65625 29.378906 13.800781 29.683594 13.921875 C 29.734375 13.945313 29.792969 13.96875 29.839844 13.988281 C 29.796875 13.984375 29.753906 13.984375 29.714844 13.984375 C 29.601563 13.984375 29.5 14 29.394531 14.011719 C 29.339844 14.019531 29.285156 14.015625 29.230469 14.027344 C 29.066406 14.050781 28.910156 14.078125 28.757813 14.109375 C 28.605469 14.144531 28.457031 14.175781 28.308594 14.203125 C 28.257813 14.210938 28.210938 14.210938 28.160156 14.21875 C 28.03125 14.234375 27.902344 14.25 27.777344 14.238281 C 27.4375 14.226563 27.027344 14.199219 26.640625 14.148438 C 26.25 14.078125 25.859375 13.988281 25.597656 13.867188 C 25.425781 13.878906 25.199219 13.867188 25.015625 13.917969 C 24.835938 13.96875 24.699219 14.066406 24.6875 14.316406 C 24.667969 14.558594 25.40625 14.6875 26.367188 14.765625 C 27.308594 14.847656 28.449219 14.867188 29.257813 14.898438 C 30.058594 14.9375 30.746094 15.066406 31.257813 15.265625 C 31.777344 15.46875 32.128906 15.738281 32.25 16.035156 C 32.308594 16.183594 32.347656 16.320313 32.367188 16.464844 C 32.386719 16.605469 32.386719 16.753906 32.367188 16.917969 C 32.316406 17.257813 32.1875 17.667969 31.949219 18.257813 C 32.628906 19.117188 32.980469 20.128906 33.140625 21.035156 C 33.308594 21.957031 33.265625 22.777344 33.1875 23.296875 C 33.085938 23.808594 33.097656 24.128906 33.140625 24.367188 C 33.1875 24.605469 33.269531 24.757813 33.328125 24.90625 C 33.378906 25.078125 33.425781 25.199219 33.4375 25.347656 C 33.449219 25.496094 33.425781 25.675781 33.367188 25.949219 C 33.898438 26.578125 34.347656 26.867188 34.75 27.007813 C 35.136719 27.148438 35.46875 27.148438 35.765625 27.1875 C 35.46875 27.648438 35 27.878906 34.46875 28 C 34.203125 28.058594 33.921875 28.089844 33.644531 28.105469 C 33.367188 28.117188 33.09375 28.117188 32.839844 28.117188 C 33.011719 28.238281 33.121094 28.488281 33.1875 28.777344 C 33.25 29.078125 33.257813 29.417969 33.230469 29.699219 C 33.1875 29.996094 33.207031 30.296875 33.25 30.535156 C 33.296875 30.796875 33.359375 30.988281 33.429688 31.058594 C 33.488281 31.128906 33.570313 31.226563 33.597656 31.359375 C 33.648438 31.488281 33.648438 31.65625 33.566406 31.828125 C 33.527344 31.917969 33.503906 31.992188 33.488281 32.050781 C 33.472656 32.113281 33.46875 32.160156 33.46875 32.207031 C 33.480469 32.277344 33.53125 32.347656 33.589844 32.40625 C 33.648438 32.476563 33.71875 32.558594 33.789063 32.640625 C 33.839844 32.738281 33.878906 32.847656 33.878906 33.007813 C 33.859375 33.167969 33.800781 33.347656 33.699219 33.507813 C 33.597656 33.65625 33.46875 33.777344 33.339844 33.785156 C 33.292969 33.792969 33.242188 33.777344 33.195313 33.765625 C 33.171875 33.761719 33.152344 33.761719 33.128906 33.753906 C 33.0625 33.730469 32.996094 33.691406 32.9375 33.640625 C 32.800781 33.527344 32.71875 33.378906 32.699219 33.21875 C 32.679688 33.058594 32.699219 32.898438 32.699219 32.75 C 32.710938 32.609375 32.71875 32.457031 32.699219 32.328125 C 32.6875 32.257813 32.675781 32.175781 32.660156 32.082031 C 32.648438 31.992188 32.632813 31.890625 32.621094 31.78125 C 32.589844 31.558594 32.558594 31.308594 32.589844 31.046875 C 32.589844 30.792969 32.558594 30.578125 32.503906 30.386719 C 32.453125 30.195313 32.375 30.035156 32.28125 29.890625 C 32.183594 29.746094 32.070313 29.621094 31.949219 29.515625 C 31.828125 29.40625 31.695313 29.3125 31.558594 29.21875 C 31.519531 29.277344 31.449219 29.335938 31.359375 29.402344 C 31.273438 29.464844 31.167969 29.535156 31.058594 29.609375 C 30.949219 29.6875 30.832031 29.769531 30.71875 29.851563 C 30.605469 29.933594 30.492188 30.019531 30.398438 30.109375 C 30.296875 30.1875 30.214844 30.296875 30.140625 30.421875 C 30.0625 30.546875 30 30.691406 29.9375 30.839844 C 29.828125 31.121094 29.75 31.421875 29.6875 31.640625 C 29.929688 31.8125 29.921875 32.078125 29.828125 32.359375 C 29.730469 32.628906 29.570313 32.878906 29.488281 33.011719 C 29.421875 33.148438 29.378906 33.21875 29.21875 33.269531 C 29.070313 33.308594 28.78125 33.320313 28.21875 33.320313 C 27.671875 33.308594 27.269531 33.1875 27 33.039063 C 26.730469 32.867188 26.578125 32.679688 26.519531 32.511719 C 26.460938 32.359375 26.402344 32.179688 26.3125 32.019531 C 26.21875 31.859375 26.109375 31.691406 25.988281 31.550781 C 25.980469 31.609375 25.96875 31.699219 25.929688 31.8125 C 25.898438 31.910156 25.832031 32.03125 25.730469 32.160156 C 25.640625 32.289063 25.558594 32.5 25.480469 32.710938 C 25.402344 32.921875 25.351563 33.128906 25.328125 33.269531 C 25.289063 33.398438 25.21875 33.46875 25.078125 33.511719 C 25.015625 33.523438 24.941406 33.527344 24.855469 33.527344 C 24.757813 33.523438 24.644531 33.515625 24.511719 33.5 C 24.269531 33.460938 24.160156 33.320313 24.140625 33.152344 L 24.140625 33.121094 C 24.140625 33.078125 24.140625 33.039063 24.152344 32.988281 C 24.152344 32.96875 24.148438 32.96875 24.160156 32.96875 C 24.179688 32.851563 24.21875 32.730469 24.289063 32.628906 C 24.378906 32.480469 24.539063 32.269531 24.679688 32.070313 C 24.839844 31.890625 24.980469 31.699219 25.050781 31.589844 C 25.121094 31.480469 25.199219 31.398438 25.21875 31.320313 C 25.242188 31.242188 25.230469 31.179688 25.121094 31.097656 C 25.054688 31.0625 25.015625 31.039063 24.984375 31.019531 C 24.96875 31.015625 24.957031 31.003906 24.941406 31.003906 C 24.9375 31.003906 24.929688 31.007813 24.921875 31.011719 C 24.878906 31.039063 24.820313 31.109375 24.699219 31.269531 C 24.578125 31.410156 24.519531 31.578125 24.421875 31.769531 C 24.328125 31.949219 24.210938 32.160156 24.03125 32.390625 C 23.839844 32.628906 23.710938 32.859375 23.628906 33.070313 C 23.550781 33.28125 23.5 33.460938 23.480469 33.628906 C 23.449219 33.78125 23.378906 33.941406 23.328125 34.097656 C 23.261719 34.257813 23.222656 34.410156 23.210938 34.539063 C 23.199219 34.6875 23.238281 34.800781 23.261719 34.929688 C 23.28125 35.058594 23.28125 35.199219 23.210938 35.402344 C 23.132813 35.589844 23.007813 35.75 22.847656 35.847656 C 22.761719 35.894531 22.664063 35.925781 22.558594 35.949219 C 22.519531 35.957031 22.472656 35.957031 22.433594 35.960938 C 22.34375 35.972656 22.261719 35.984375 22.160156 35.980469 C 21.859375 35.96875 21.679688 35.871094 21.570313 35.738281 C 21.460938 35.621094 21.410156 35.472656 21.421875 35.351563 C 21.421875 35.242188 21.5 35.082031 21.628906 34.890625 C 21.769531 34.710938 21.960938 34.492188 22.1875 34.269531 L 22.339844 34.109375 C 22.46875 33.921875 22.539063 33.703125 22.570313 33.5 C 22.628906 33.222656 22.621094 32.953125 22.628906 32.769531 C 22.628906 32.601563 22.75 32.332031 22.890625 32.050781 C 23.03125 31.789063 23.199219 31.53125 23.320313 31.371094 C 23.441406 31.222656 23.449219 31.050781 23.378906 30.878906 C 23.320313 30.722656 23.171875 30.582031 23 30.511719 C 22.820313 30.433594 22.710938 30.3125 22.621094 30.183594 C 22.527344 30.042969 22.46875 29.902344 22.410156 29.761719 C 22.351563 29.632813 22.378906 29.472656 22.347656 29.34375 C 22.339844 29.210938 22.289063 29.101563 22.089844 29.070313 C 22.058594 29.0625 22.027344 29.0625 22 29.0625 C 21.957031 29.0625 21.925781 29.078125 21.890625 29.09375 C 21.875 29.097656 21.847656 29.097656 21.832031 29.109375 C 21.773438 29.144531 21.726563 29.191406 21.6875 29.25 C 21.589844 29.382813 21.53125 29.5625 21.4375 29.710938 C 21.339844 29.871094 21.25 30.03125 21.179688 30.238281 C 21.121094 30.429688 21.070313 30.691406 21.050781 30.988281 C 21.039063 31.308594 20.902344 31.761719 20.71875 32.160156 C 20.550781 32.582031 20.351563 32.929688 20.238281 33.0625 C 20.121094 33.191406 20.050781 33.230469 19.960938 33.292969 C 19.882813 33.332031 19.800781 33.398438 19.679688 33.570313 L 19.429688 34.101563 C 19.300781 34.339844 19.261719 34.652344 19.230469 34.980469 C 19.191406 35.300781 19.167969 35.609375 19.121094 35.820313 C 19.058594 36.050781 18.910156 36.25 18.6875 36.371094 C 18.589844 36.425781 18.46875 36.460938 18.347656 36.484375 C 18.316406 36.488281 18.277344 36.488281 18.246094 36.496094 C 18.117188 36.507813 17.984375 36.511719 17.839844 36.480469 C 17.511719 36.429688 17.351563 36.261719 17.3125 36.0625 C 17.3125 36.039063 17.300781 36.023438 17.300781 36 C 17.300781 35.871094 17.351563 35.730469 17.421875 35.589844 C 17.460938 35.539063 17.488281 35.480469 17.53125 35.4375 C 17.699219 35.238281 17.929688 34.949219 18.160156 34.640625 C 18.371094 34.339844 18.597656 34.011719 18.78125 33.75 C 18.9375 33.5 19.019531 33.230469 19.070313 32.960938 C 19.128906 32.742188 19.179688 32.492188 19.289063 32.21875 C 19.300781 32.171875 19.328125 32.121094 19.347656 32.070313 C 19.378906 32 19.410156 31.921875 19.449219 31.828125 C 19.550781 31.558594 19.640625 31.269531 19.710938 30.949219 C 19.800781 30.527344 19.847656 30.082031 19.871094 29.640625 C 19.890625 29.191406 19.96875 28.78125 20.0625 28.410156 C 20.109375 28.226563 20.15625 28.046875 20.203125 27.878906 C 20.25 27.714844 20.292969 27.558594 20.339844 27.421875 C 20.378906 27.273438 20.421875 27.109375 20.464844 26.925781 C 20.503906 26.746094 20.539063 26.550781 20.566406 26.347656 C 20.648438 25.949219 20.699219 25.53125 20.707031 25.179688 C 20.738281 24.820313 20.859375 24.511719 21 24.238281 C 21.136719 23.960938 21.296875 23.71875 21.398438 23.480469 C 21.5 23.242188 21.558594 22.980469 21.707031 22.519531 C 21.859375 22.050781 22.097656 21.378906 22.578125 20.328125 C 23.058594 19.28125 23.96875 18.5 24.847656 17.9375 C 25.503906 17.511719 26.136719 17.214844 26.5625 17.027344 C 26.703125 16.960938 26.820313 16.910156 26.90625 16.871094 C 27.066406 16.789063 27.246094 16.742188 27.425781 16.714844 C 27.488281 16.703125 27.546875 16.703125 27.609375 16.699219 C 27.757813 16.683594 27.902344 16.671875 28.046875 16.679688 C 28.4375 16.710938 28.839844 16.828125 29.148438 17 C 29.476563 17.171875 29.851563 17.261719 30.171875 17.300781 C 30.5 17.351563 30.769531 17.347656 30.921875 17.359375 C 31.109375 17.210938 31.257813 17.097656 31.308594 16.9375 C 31.320313 16.902344 31.328125 16.863281 31.324219 16.816406 C 31.320313 16.726563 31.285156 16.621094 31.210938 16.496094 C 31.175781 16.433594 31.125 16.363281 31.066406 16.289063 C 30.839844 15.980469 30.128906 15.820313 29.207031 15.710938 C 28.289063 15.601563 27.167969 15.570313 26.148438 15.511719 C 25.890625 15.496094 25.660156 15.476563 25.453125 15.449219 C 24.824219 15.367188 24.402344 15.214844 24.121094 15.03125 C 24.027344 14.964844 23.957031 14.894531 23.894531 14.820313 C 23.714844 14.597656 23.65625 14.335938 23.679688 14.050781 C 23.691406 13.660156 23.910156 13.480469 24.171875 13.371094 C 24.429688 13.257813 24.738281 13.25 24.96875 13.21875 C 25.179688 13.179688 25.347656 13.171875 25.53125 13.160156 C 25.730469 13.148438 25.949219 13.128906 26.308594 13.050781 C 26.476563 13.023438 26.609375 13.011719 26.722656 13.003906 C 26.738281 13.003906 26.75 13.003906 26.761719 13.003906 Z M 27.21875 17.625 C 27.132813 17.625 27.035156 17.652344 26.9375 17.671875 C 26.894531 17.679688 26.855469 17.679688 26.8125 17.691406 C 26.648438 17.734375 26.476563 17.796875 26.296875 17.878906 C 25.929688 18.0625 25.546875 18.308594 25.238281 18.578125 C 24.917969 18.859375 24.558594 19.097656 24.257813 19.359375 C 23.957031 19.621094 23.699219 19.921875 23.566406 20.3125 C 23.4375 20.71875 23.25 21.230469 23.058594 21.699219 C 22.878906 22.179688 22.699219 22.609375 22.589844 22.828125 C 22.476563 23.039063 22.257813 23.492188 22.058594 23.980469 C 22.054688 23.992188 22.054688 24 22.046875 24.011719 C 21.96875 24.210938 21.902344 24.410156 21.84375 24.605469 C 21.835938 24.632813 21.824219 24.660156 21.816406 24.6875 C 21.769531 24.882813 21.742188 25.058594 21.734375 25.21875 C 21.734375 25.234375 21.726563 25.257813 21.726563 25.277344 C 21.726563 25.296875 21.726563 25.320313 21.730469 25.34375 C 21.722656 25.425781 21.71875 25.511719 21.71875 25.589844 C 21.71875 25.609375 21.722656 25.625 21.722656 25.644531 C 21.726563 25.78125 21.738281 25.90625 21.765625 26.011719 C 21.769531 26.019531 21.765625 26.03125 21.769531 26.039063 C 21.796875 26.117188 21.839844 26.179688 21.890625 26.21875 C 21.90625 26.234375 21.925781 26.230469 21.941406 26.238281 C 21.972656 26.253906 22 26.28125 22.035156 26.28125 C 22.058594 26.28125 22.085938 26.277344 22.109375 26.269531 C 22.28125 26.238281 22.351563 26.089844 22.421875 25.949219 C 22.5 25.808594 22.570313 25.679688 22.769531 25.679688 C 22.949219 25.679688 23.050781 25.699219 23.121094 25.738281 C 23.179688 25.78125 23.226563 25.832031 23.316406 25.890625 C 23.398438 25.929688 23.507813 26.019531 23.621094 26.0625 C 23.660156 26.078125 23.703125 26.09375 23.746094 26.09375 C 23.753906 26.089844 23.761719 26.085938 23.769531 26.085938 C 23.78125 26.085938 23.789063 26.082031 23.796875 26.078125 C 23.847656 26.066406 23.890625 26.039063 23.9375 25.984375 C 23.9375 25.980469 23.9375 25.984375 23.9375 25.980469 C 23.9375 25.980469 23.941406 25.980469 23.941406 25.980469 C 24.03125 25.863281 24.160156 25.8125 24.289063 25.800781 C 24.335938 25.792969 24.386719 25.792969 24.4375 25.796875 C 24.511719 25.800781 24.589844 25.808594 24.65625 25.820313 C 24.699219 25.824219 24.738281 25.828125 24.78125 25.828125 C 24.847656 25.828125 24.917969 25.820313 24.988281 25.800781 C 25.089844 25.769531 25.179688 25.691406 25.269531 25.542969 C 25.359375 25.382813 25.46875 25.332031 25.578125 25.320313 C 25.609375 25.316406 25.628906 25.320313 25.65625 25.324219 C 25.714844 25.332031 25.773438 25.34375 25.796875 25.351563 C 25.929688 25.542969 26.058594 25.800781 26.140625 26.042969 C 26.152344 26.082031 26.160156 26.117188 26.171875 26.15625 C 26.191406 26.222656 26.210938 26.285156 26.222656 26.34375 C 26.230469 26.386719 26.234375 26.417969 26.238281 26.457031 C 26.246094 26.519531 26.257813 26.582031 26.25 26.625 L 26.25 26.628906 C 26.230469 26.75 26.171875 26.960938 26.078125 27.171875 C 25.980469 27.382813 25.847656 27.621094 25.699219 27.8125 C 25.550781 28.011719 25.359375 28.292969 25.339844 28.59375 C 25.339844 28.601563 25.339844 28.609375 25.339844 28.621094 C 25.339844 28.664063 25.351563 28.703125 25.359375 28.75 C 25.363281 28.777344 25.363281 28.800781 25.371094 28.828125 C 25.382813 28.882813 25.410156 28.9375 25.4375 28.992188 C 25.449219 29.019531 25.457031 29.042969 25.472656 29.066406 C 25.511719 29.128906 25.566406 29.1875 25.625 29.25 C 25.640625 29.269531 25.652344 29.289063 25.671875 29.308594 C 25.757813 29.386719 25.863281 29.464844 25.988281 29.542969 C 25.984375 29.621094 25.980469 29.691406 25.980469 29.75 C 25.980469 29.753906 25.984375 29.757813 25.984375 29.761719 C 25.984375 29.839844 25.992188 29.914063 26.03125 30 C 26.054688 30.070313 26.105469 30.152344 26.1875 30.257813 C 26.265625 30.363281 26.382813 30.496094 26.542969 30.671875 C 26.601563 30.738281 26.660156 30.820313 26.714844 30.917969 C 26.769531 31.015625 26.820313 31.125 26.871094 31.238281 C 26.972656 31.480469 27.039063 31.71875 27.078125 31.902344 C 27.089844 31.949219 27.121094 31.992188 27.152344 32 C 27.160156 32.003906 27.167969 32.003906 27.171875 32.003906 C 27.175781 32.003906 27.175781 31.996094 27.175781 31.996094 C 27.207031 31.992188 27.230469 31.976563 27.238281 31.921875 C 27.308594 31.75 27.421875 31.523438 27.488281 31.171875 C 27.523438 31.03125 27.554688 30.863281 27.578125 30.675781 C 27.582031 30.648438 27.585938 30.621094 27.589844 30.589844 C 27.609375 30.40625 27.617188 30.195313 27.621094 29.964844 C 27.621094 29.941406 27.625 29.921875 27.625 29.898438 C 27.625 29.816406 27.625 29.730469 27.621094 29.640625 C 27.519531 29.671875 27.382813 29.710938 27.25 29.792969 C 27.113281 29.871094 26.980469 29.980469 26.878906 30.121094 C 26.875 30.007813 26.882813 29.875 26.890625 29.738281 C 26.894531 29.691406 26.890625 29.652344 26.894531 29.605469 C 26.90625 29.441406 26.921875 29.269531 26.941406 29.101563 C 26.992188 28.742188 27.042969 28.402344 27.109375 28.230469 C 27.171875 28.039063 27.199219 27.949219 27.230469 27.890625 C 27.269531 27.820313 27.308594 27.78125 27.402344 27.703125 C 27.492188 27.609375 27.570313 27.46875 27.578125 27.320313 C 27.582031 27.304688 27.582031 27.289063 27.582031 27.269531 C 27.582031 27.230469 27.570313 27.191406 27.5625 27.148438 C 27.5625 27.144531 27.5625 27.140625 27.5625 27.136719 C 27.554688 27.113281 27.558594 27.089844 27.550781 27.066406 C 27.527344 26.996094 27.492188 26.929688 27.4375 26.863281 C 27.433594 26.859375 27.4375 26.855469 27.433594 26.851563 C 27.292969 26.710938 27.210938 26.582031 27.152344 26.460938 C 27.148438 26.453125 27.148438 26.449219 27.144531 26.441406 C 27.121094 26.367188 27.109375 26.289063 27.105469 26.214844 C 27.101563 26.160156 27.101563 26.105469 27.109375 26.050781 C 27.121094 25.902344 27.269531 25.710938 27.578125 25.542969 C 27.898438 25.359375 28.371094 25.210938 29.019531 25.152344 C 29.054688 25.144531 29.074219 25.15625 29.09375 25.167969 C 29.09375 25.167969 29.097656 25.167969 29.097656 25.167969 C 29.105469 25.171875 29.113281 25.167969 29.121094 25.171875 C 29.121094 25.171875 29.125 25.175781 29.125 25.175781 C 29.132813 25.183594 29.136719 25.195313 29.140625 25.203125 C 29.148438 25.210938 29.15625 25.222656 29.15625 25.230469 C 29.15625 25.269531 29.128906 25.339844 29.046875 25.378906 C 28.988281 25.421875 28.847656 25.507813 28.707031 25.609375 C 28.546875 25.71875 28.40625 25.832031 28.339844 25.910156 C 28.269531 25.980469 28.148438 26.152344 28.140625 26.378906 C 28.140625 26.601563 28.226563 26.859375 28.617188 27.128906 C 28.988281 27.402344 29.21875 27.539063 29.425781 27.621094 C 29.425781 27.621094 29.429688 27.621094 29.429688 27.621094 C 29.621094 27.699219 29.789063 27.722656 30.050781 27.75 C 29.972656 27.660156 29.769531 27.460938 29.5625 27.261719 C 29.511719 27.214844 29.460938 27.171875 29.410156 27.125 C 29.316406 27.039063 29.234375 26.957031 29.175781 26.894531 C 29.152344 26.863281 29.128906 26.839844 29.121094 26.820313 C 29.078125 26.75 29.019531 26.660156 29.011719 26.5625 C 29.007813 26.53125 29.019531 26.496094 29.03125 26.464844 C 29.03125 26.464844 29.03125 26.460938 29.03125 26.460938 C 29.035156 26.453125 29.035156 26.445313 29.035156 26.4375 C 29.042969 26.425781 29.039063 26.414063 29.046875 26.402344 C 29.046875 26.402344 29.050781 26.402344 29.050781 26.402344 C 29.082031 26.34375 29.132813 26.28125 29.21875 26.210938 C 29.304688 26.144531 29.386719 26.085938 29.464844 26.023438 C 29.539063 25.964844 29.601563 25.90625 29.65625 25.847656 C 29.777344 25.757813 29.859375 25.667969 29.898438 25.597656 C 30.046875 25.691406 30.296875 25.820313 30.546875 25.949219 C 30.796875 26.070313 31.058594 26.1875 31.207031 26.25 C 31.355469 26.300781 31.527344 26.378906 31.667969 26.488281 C 31.816406 26.589844 31.945313 26.71875 32.046875 26.847656 C 32.125 26.972656 32.265625 27.09375 32.441406 27.195313 C 32.617188 27.296875 32.828125 27.382813 33.058594 27.449219 C 33.175781 27.484375 33.300781 27.511719 33.425781 27.53125 C 33.449219 27.53125 33.472656 27.53125 33.496094 27.535156 C 33.597656 27.546875 33.703125 27.558594 33.808594 27.558594 C 33.816406 27.558594 33.824219 27.5625 33.832031 27.5625 C 33.84375 27.5625 33.851563 27.558594 33.859375 27.558594 C 34.074219 27.554688 34.289063 27.53125 34.488281 27.46875 C 34.488281 27.46875 34.484375 27.46875 34.484375 27.46875 C 34.417969 27.445313 34.300781 27.398438 34.160156 27.335938 C 34.023438 27.273438 33.863281 27.1875 33.699219 27.089844 C 33.527344 26.988281 33.355469 26.875 33.191406 26.746094 C 33.03125 26.617188 32.882813 26.476563 32.769531 26.320313 C 32.609375 26.089844 32.5 26 32.398438 25.929688 C 32.398438 25.929688 32.394531 25.929688 32.394531 25.929688 C 32.285156 25.859375 32.1875 25.839844 32.046875 25.796875 C 31.90625 25.738281 31.628906 25.660156 31.339844 25.5 C 31.058594 25.351563 30.761719 25.128906 30.589844 24.800781 C 30.410156 24.492188 30.289063 24.03125 30.1875 23.597656 C 30.078125 23.191406 30.007813 22.800781 29.929688 22.640625 C 29.851563 22.492188 29.71875 22.332031 29.597656 22.140625 C 29.488281 21.949219 29.378906 21.71875 29.339844 21.402344 C 29.308594 21.089844 29.25 20.769531 29.199219 20.488281 C 29.140625 20.199219 29.070313 19.960938 28.980469 19.800781 C 28.878906 19.628906 28.808594 19.359375 28.738281 19.109375 C 28.667969 18.847656 28.609375 18.609375 28.519531 18.5 C 28.441406 18.390625 28.269531 18.191406 28.046875 18 C 27.933594 17.910156 27.8125 17.824219 27.683594 17.753906 C 27.554688 17.6875 27.421875 17.640625 27.285156 17.628906 C 27.265625 17.628906 27.242188 17.625 27.21875 17.625 Z"/></svg>